<?xml version="1.0" standalone="no"?><!DOCTYPE svg PUBLIC "-//W3C//DTD SVG 1.1//EN" "http://www.w3.org/Graphics/SVG/1.1/DTD/svg11.dtd"><svg t="1554309039210" class="icon" style="" viewBox="0 0 1024 1024" version="1.1" xmlns="http://www.w3.org/2000/svg" p-id="2542" xmlns:xlink="http://www.w3.org/1999/xlink" width="200" height="200"><defs><style type="text/css"></style></defs><path d="M858.334254 170.662554c0 441.171277-271.656096 803.84-620.40829 848.488868a187.330313 187.330313 0 0 1-42.16906 4.848578C96.071121 1024 15.051748 947.508434 15.051748 853.325108s81.019373-170.662554 180.705156-170.662554v-1.147373C363.507844 668.684337 557.167217 455.248193 557.167217 180.705157 557.167217 86.558843 617.398157 0 707.744567 0s150.589687 76.491566 150.589687 170.662554z" fill="#FFDC4A" p-id="2543"></path><path d="M201.518446 952.08559c-3.701205-4.93494-12.337349-24.316916-16.556722-46.881927a187.429012 187.429012 0 0 1-2.775904-29.955085c0-94.146313 81.019373-170.662554 180.705157-170.662554v-1.135036c167.787952-12.793831 361.410313-226.328675 361.410313-500.822361 0-56.122602 21.392964-109.543325 57.825156-143.545061l20.159229 145.420338-40.984674 276.442988c-17.457349 65.387952-53.210988 163.568578-131.886265 256.888289C470.053193 926.868048 227.167796 986.173687 201.518446 952.08559z" fill="#FFCA2A" p-id="2544"></path><path d="M707.744567 78.959036c19.961831 0 36.481542 7.501108 49.10265 22.305928 14.533398 17.03788 22.528 41.675566 22.528 69.39759 0 195.645687-58.256964 382.457831-164.086746 526.113928-101.931181 138.462072-239.517301 225.119614-387.392772 244.057446l-3.910939 0.493494-3.824579 0.888289a108.864771 108.864771 0 0 1-24.403277 2.825253c-27.968771 0-54.08694-10.104289-73.518265-28.474603C104.028711 899.392771 94.010784 876.91412 94.010784 853.325108s10.017928-46.042988 28.227855-63.241253c19.431325-18.357976 45.549494-28.462265 73.518265-28.462265h78.959036v-15.791807c82.277783-26.142843 162.248482-84.80694 227.007229-168.133397 86.682217-111.554313 134.477108-252.533205 134.477109-396.991229 0-29.09147 8.907566-57.060241 24.440289-76.762988C673.644133 87.360771 689.522302 78.959036 707.744567 78.959036m0-78.959036c-90.34641 0-150.515663 86.558843-150.515663 180.705157 0 274.481349-193.696386 488.016193-361.410313 500.810024v1.147373C96.071121 682.662554 15.051748 759.178795 15.051748 853.325108S96.071121 1024 195.756904 1024a187.330313 187.330313 0 0 0 42.16906-4.836241c348.752193-44.648867 620.408289-407.31759 620.40829-848.488867C858.334254 76.491566 798.103314 0 707.744567 0z" fill="#471D18" p-id="2545"></path><path d="M617.398157 783.051566c139.708145 0 262.304386 56.295325 331.59094 141.015904 19.739759 24.181205 59.823807 11.63412 59.947181-19.604048v-0.937639c0-166.344482-175.28906-301.179373-391.525783-301.179373S406.577531 783.051566 225.872374 903.525783v0.937639c0.061687 31.620627 39.393157 44.895614 59.330313 20.356626C354.328856 839.68 477.270543 783.051566 617.398157 783.051566z" fill="#471D18" p-id="2546"></path><path d="M359.091073 579.263229C284.672181 461.022072 171.736085 387.25706 63.16741 373.747663c-30.991422-3.849253-41.712578-44.414458-15.335325-61.168579l0.801928-0.505831c140.769157-88.594506 348.258699-12.065928 463.440192 170.933976s64.314602 312.838169-76.491566 401.432675l1.135036-11.103615c-26.796723 16.791133-60.909494 2.122024-50.755855-27.83306 35.173783-103.818795 47.75788-147.64106-26.870747-266.24z" fill="#471D18" p-id="2547"></path><path d="M406.577531 572.23094c-54.716145 98.575422-93.258024 143.915181-180.705157 150.589687h-30.11547c-99.685783 0-150.589687 26.315566-150.589687 120.461879s50.903904 150.589687 150.589687 150.589687c14.459373 0 16.56906 3.133687 30.11547 0 252.779952-32.373205 354.081928-86.114699 451.756723-361.410313z" fill="#471D18" p-id="2548"></path></svg>