<?xml version="1.0" standalone="no"?><!DOCTYPE svg PUBLIC "-//W3C//DTD SVG 1.1//EN" "http://www.w3.org/Graphics/SVG/1.1/DTD/svg11.dtd"><svg t="1554308963090" class="icon" style="" viewBox="0 0 1024 1024" version="1.1" xmlns="http://www.w3.org/2000/svg" p-id="2035" xmlns:xlink="http://www.w3.org/1999/xlink" width="200" height="200"><defs><style type="text/css"></style></defs><path d="M986.997202 674.728682l-2.645995-15.875969-5.29199-18.521964-2.645995-7.937984-2.645994-10.583979V611.224806l-2.645995-10.583979-5.29199-10.583979-5.29199-10.58398-7.937984-15.875969-5.29199-13.229974-5.291989-13.229974-5.29199-10.583979-5.29199-10.58398-10.583979-10.583979-10.583979-15.875969-13.229974-21.167959-2.645995-5.291989-2.645995-2.645995v-2.645995l2.645995-5.29199 5.291989-5.291989 2.645995-13.229975 2.645995-5.291989v-21.167959l-2.645995-7.937984-2.645995-7.937985-2.645994-10.583979V373.085271l-5.29199-7.937984-2.645995-7.937985-2.645995-7.937984-5.291989-5.29199-5.29199-7.937984-2.645995-5.29199-2.645995-2.645995-2.645995-18.521964-2.645994-10.583979-2.645995-15.875969-2.645995-15.875969-5.29199-18.521964 2.645995-7.937984-2.645995-7.937985-5.291989-10.583979-2.645995-10.583979-5.29199-7.937985-5.29199-10.583979-7.937984-18.521964-5.29199-10.583979-5.291989-10.58398-5.29199-7.937984V134.945736l-7.937985-10.583979-5.291989-7.937984-7.937985-10.58398-7.937984-7.937984-7.937985-7.937985-10.583979-7.937984-5.29199-5.29199-5.291989-5.29199-10.58398-5.291989-15.875969-10.58398-13.229974-7.937984-13.229974-5.29199-15.875969-5.291989-13.229974-7.937985-13.229974-5.29199-15.875969-5.291989-13.229975-5.29199-15.875969-5.29199-13.229974-2.645994-15.875969-2.645995-15.875969-2.645995-15.875969 2.645995h-63.503876l-15.875969 2.645995-7.937984 2.645994-15.875969 5.29199-13.229974 2.645995-15.875969 2.645995-13.229974 5.291989-13.229975 5.29199h-10.583979l-13.229974 5.29199-10.583979 5.291989-10.58398 5.29199-10.583979 5.29199-10.583979 5.291989-10.58398 7.937985-5.291989 7.937984-15.875969 10.58398-10.58398 13.229974-10.583979 15.875969-10.583979 10.583979-7.937985 13.229974-7.937984 10.58398-5.29199 10.583979-5.29199 5.29199-5.291989 5.291989-5.29199 10.58398-5.29199 10.583979-5.291989 10.583979-5.29199 10.58398-2.645995 10.583979-5.291989 7.937985-2.645995 10.583979-2.645995 7.937984-5.29199 15.875969-2.645995 15.875969-2.645994 13.229975-2.645995 10.583979v21.167959l-5.29199 2.645994-2.645995 5.29199-2.645995 5.29199-2.645994 5.291989 2.645994 7.937985-2.645994 7.937984-2.645995 7.937985v13.229974l-5.29199 10.583979-5.29199 7.937985-2.645994 7.937984-2.645995 5.29199-2.645995 7.937984V447.173127l2.645995 7.937984 2.645995 5.29199-5.29199 2.645995-7.937985 5.291989-13.229974 13.229974-7.937984 7.937985-5.29199 5.29199-5.29199 5.291989-5.291989 5.29199-10.58398 10.583979-7.937984 10.58398-5.29199 7.937984-7.937984 13.229974-10.58398 10.58398-7.937984 13.229974-5.29199 10.583979-5.291989 13.229974-5.29199 10.58398-5.29199 13.229974-5.291989 10.583979v7.937985l-5.29199 13.229974-2.645995 7.937984-2.645995 10.58398-2.645995 10.583979v58.211886l5.29199 15.875969v5.29199l2.645995 5.291989 2.645995 5.29199 2.645995 5.29199 2.645994 5.291989 2.645995 2.645995 2.645995 2.645995v2.645995H42.377047l5.291989-2.645995 5.29199-2.645995 7.937985-5.291989 5.291989-5.29199 7.937985-2.645995 5.291989-5.29199 5.29199-5.291989 5.29199-5.29199 5.291989-7.937984 5.29199-5.29199 2.645995-5.29199 5.29199-7.937984v-5.29199l2.645994-2.645995V717.064599h2.645995l2.645995-2.645994v2.645994h2.645995l2.645995 10.58398 2.645995 10.583979 5.291989 10.583979 5.29199 7.937985 2.645995 13.229974 5.291989 7.937985 5.29199 7.937984v7.937985l5.29199 5.291989 2.645995 5.29199 10.583979 13.229974 10.583979 10.583979 7.937985 7.937985 7.937984 7.937984 7.937985 10.58398 10.583979 7.937984 5.29199 2.645995 2.645995 2.645995v2.645995h-2.645995l-2.645995 2.645995H201.136737l-5.29199 2.645994H174.676788l-5.291989 5.29199-5.29199 2.645995-5.29199 2.645995-2.645994 2.645995-5.29199 2.645994H148.21684l-5.29199 5.29199-2.645994 2.645995-2.645995 5.29199-2.645995 5.291989-2.645995 5.29199-2.645995 5.29199v10.583979l-2.645995 5.29199v18.521963l2.645995 5.29199 2.645995 5.29199 2.645995 5.291989 2.645995 2.645995 2.645995 5.29199 2.645994 2.645995H150.862835l5.29199 5.291989 7.937984 5.29199 10.583979 5.29199 7.937985 5.291989 10.583979 5.29199h10.58398l10.583979 5.29199H227.596685l13.229974 2.645995 10.583979 2.645994h13.229975l26.459948 5.29199H370.480406l10.583979-2.645995h7.937985l7.937984-2.645995 15.875969-2.645994 7.937985-2.645995 10.583979-2.645995 15.875969-7.937985 7.937985-2.645994 5.291989-5.29199 13.229974-5.29199 13.229975-5.291989 5.291989-5.29199 5.29199-5.29199 10.583979 2.645995H545.116065l5.29199 2.645995 5.291989 2.645995 7.937985 2.645995 5.291989 2.645994 15.875969 5.29199 15.875969 5.29199 15.875969 5.291989 15.875969 5.29199 15.875969 2.645995 15.875969 2.645995 15.875969 2.645995 15.875969 2.645994 15.875969 2.645995h74.087856l15.875969-2.645995 13.229974-2.645994 10.583979-2.645995 13.229974-2.645995 10.58398-2.645995 5.291989-2.645995 5.29199-2.645995 10.583979-5.291989 7.937985-5.29199 7.937984-5.29199 5.29199-5.291989 5.29199-5.29199 5.291989-2.645995 2.645995-5.291989 5.29199-5.29199 5.291989-5.29199 2.645995-2.645995 2.645995-5.291989 2.645995-5.29199v-13.229974l-2.645995-5.29199-2.645995-5.291989v-5.29199l-5.291989-5.29199-2.645995-5.291989-5.29199-5.29199-15.875969 5.29199-7.937984-7.937985-10.58398-5.29199-10.583979-5.291989-10.583979-10.58398-23.813954-13.229974-5.29199-5.291989h-2.645994l-2.645995-2.645995 13.229974-13.229974 5.29199-5.29199 5.291989-5.29199 5.29199-13.229974 7.937984-10.583979 5.29199-10.58398 5.29199-10.583979 7.937984-21.167959 5.29199-18.521963 5.29199-10.58398 2.645994-5.291989 2.645995-5.29199 2.645995-2.645995h2.645995l5.29199 13.229974 5.291989 13.229974 5.29199 5.29199 5.29199 5.29199 5.291989 7.937984 5.29199 5.29199 5.291989 5.29199 2.645995 5.291989 5.29199 2.645995 2.645995 2.645995h2.645995l5.291989 5.29199h13.229974l2.645995-2.645995 5.29199-2.645995 2.645995-2.645995 5.291989-5.29199 2.645995-5.291989 5.29199-2.645995 2.645995-5.29199 2.645995-5.291989 2.645994-5.29199 2.645995-5.29199 2.645995-13.229974 5.29199-13.229974v-13.229974l2.645995-7.937985v-21.167958l-18.521964-7.937985z" p-id="2036"></path></svg>